# xmcd CD database file
#
# Track frame offsets:
#	150
#	12062
#	28502
#	46795
#	68643
#	84765
#	98758
#	114858
#	131561
#	150432
#	165514
#
# Disc length: 2458 seconds
#
# Revision: 1
# Processed by: cddbd v1.5.2PL0 Copyright (c) Steve Scherf et al.
# Submitted via: CDex 1.70beta2
#
DISCID=6a09980b
DTITLE=Winterplay - Choco Snowball
DYEAR=2008
DGENRE=Jazz
TTITLE0=Hot Sauce
TTITLE1=Melon Man
TTITLE2=Serivora
TTITLE3=Quando, Quando, Quando
TTITLE4=Holidays Without You
TTITLE5=Winter Blues
TTITLE6=Hey Bob
TTITLE7=You'Re In My Heart
TTITLE8=Cannot Forget (못잊어)
TTITLE9=Pretty Brown Eyes
TTITLE10=Farewell (For Byul)
EXTD=YEAR: 2008
EXTT0=
EXTT1=
EXTT2=
EXTT3=
EXTT4=
EXTT5=
EXTT6=
EXTT7=
EXTT8=
EXTT9=
EXTT10=
PLAYORDER=
